<mxfile host="app.diagrams.net">
  <diagram name="Cas d'Utilisation - Site de Chef">
    <mxGraphModel>
      <root>
        <mxCell id="0" />
        <mxCell id="1" parent="0" />
        
        <!-- Acteur : Client -->
        <mxCell id="client" value="Client" style="shape=umlActor;verticalLabelPosition=bottom;verticalAlign=top;html=1;" vertex="1" parent="1">
          <mxGeometry x="50" y="150" width="60" height="110" as="geometry" />
        </mxCell>
        
        <!-- Acteur : Chef -->
        <mxCell id="chef" value="Chef" style="shape=umlActor;verticalLabelPosition=bottom;verticalAlign=top;html=1;" vertex="1" parent="1">
          <mxGeometry x="700" y="150" width="60" height="110" as="geometry" />
        </mxCell>
        
        <!-- Cas d'Utilisation : Consulter le menu -->
        <mxCell id="menu" value="Consulter le menu" style="ellipse;whiteSpace=wrap;html=1;" vertex="1" parent="1">
          <mxGeometry x="200" y="100" width="160" height="60" as="geometry" />
        </mxCell>
        
        <!-- Cas d'Utilisation : Réserver une expérience -->
        <mxCell id="reserver" value="Réserver une expérience" style="ellipse;whiteSpace=wrap;html=1;" vertex="1" parent="1">
          <mxGeometry x="200" y="200" width="160" height="60" as="geometry" />
        </mxCell>
        
        <!-- Cas d'Utilisation : Gérer les réservations -->
        <mxCell id="gerer" value="Gérer les réservations" style="ellipse;whiteSpace=wrap;html=1;" vertex="1" parent="1">
          <mxGeometry x="500" y="100" width="160" height="60" as="geometry" />
        </mxCell>
        
        <!-- Relations -->
        <mxCell id="rel1" style="edgeStyle=orthogonalEdgeStyle;rounded=1;html=1;" edge="1" parent="1" source="client" target="menu">
          <mxGeometry relative="1" as="geometry" />
        </mxCell>
        <mxCell id="rel2" style="edgeStyle=orthogonalEdgeStyle;rounded=1;html=1;" edge="1" parent="1" source="client" target="reserver">
          <mxGeometry relative="1" as="geometry" />
        </mxCell>
        <mxCell id="rel3" style="edgeStyle=orthogonalEdgeStyle;rounded=1;html=1;" edge="1" parent="1" source="chef" target="gerer">
          <mxGeometry relative="1" as="geometry" />
        </mxCell>
      </root>
    </mxGraphModel>
  </diagram>
</mxfile>
